<?xml version="1.0" encoding="utf-8"?>
<!-- Generator: Adobe Illustrator 19.2.0, SVG Export Plug-In . SVG Version: 6.00 Build 0)  -->
<svg version="1.1" id="レイヤー_1" xmlns="http://www.w3.org/2000/svg" xmlns:xlink="http://www.w3.org/1999/xlink" x="0px"
	 y="0px" viewBox="0 0 1848.9 1000.5" style="enable-background:new 0 0 1848.9 1000.5;" xml:space="preserve">
<style type="text/css">
	.st0{fill:#404040;stroke:#404040;stroke-miterlimit:10;}
	.st1{font-family:'MalayalamSangamMN';}
	.st2{font-size:361.9314px;}
</style>
<g id="_x3C_logobar_x3E_">
	<g id="ロゴ">
		<text transform="matrix(0.5344 0 0 1 705.4766 567.1439)" class="st0 st1 st2">TABI BLOG</text>
		<text transform="matrix(0.5344 0 0 1 705.4766 567.1439)" class="st0 st1 st2">TABI BLOG</text>
		<path class="st0" d="M18.3,999.7c590.9-206,1206.4-274.4,1816.5-201.8c18.2,2.2,18.1-34,0-36.2
			c-612.6-72.8-1230.7-4.1-1824.2,202.7c-17.6,6.1-10.2,41,7.6,34.9l0,0L18.3,999.7L18.3,999.7z"/>
		<path class="st0" d="M308.5,17c-2.6,84.1-18.4,166.7-46.3,242.9c-12.9,34.7-34.7,96.5-71.9,73.6c-21.2-13.3-36.3-38.6-58.8-49.8
			C53,244.1-2.7,368.2,6,452.5c14.3,139.3,118.8,198.1,215.6,217.3c57.2,11.3,114.9,23.2,172.5,30.6c40.4,5.2,63.2-15.6,77.6-63.1
			c52.1-172.2,86.8-357.1,120.2-536.4c2-9.6-2.5-19.4-10-22.3c-74.4-30.5-151-51.1-228.6-61.4c-18.2-2.4-18.1,33.8,0,36.2
			c75.1,10.2,149.3,30.3,221.1,60.1l-10-22.3c-32.6,175.7-67.5,355-116.9,524.3c-17.5,60-53.8,48.3-96,41.2l-96.3-17.1
			c-67.4-12.2-140.8-26.4-187.1-96.5C28.3,482.4,9.8,335,94.8,314.5c47.4-11.5,73.2,71.9,122.2,62c42.7-8.7,64.8-81.6,79.3-124.8
			C320.7,177.3,334.5,98,337,17.5c0.9-23.3-27.6-23.3-28.5,0l0,0L308.5,17z"/>
	</g>
</g>
</svg>
