<?xml version="1.0" encoding="utf-8"?>
<!-- Generator: Adobe Illustrator 19.2.0, SVG Export Plug-In . SVG Version: 6.00 Build 0)  -->
<svg version="1.1" id="レイヤー_1" xmlns="http://www.w3.org/2000/svg" xmlns:xlink="http://www.w3.org/1999/xlink" x="0px"
	 y="0px" viewBox="0 0 38 43" style="enable-background:new 0 0 38 43;" xml:space="preserve">
<style type="text/css">
	.st0{fill:#404040;}
</style>
<title>iconprofile</title>
<path class="st0" d="M15.6,8.8c-1.9,0.1-4.4-1.1-3.9-3.5C12.2,3.2,15,2.9,16.6,3c2.3,0.1,3.8,2.6,2.9,4.8c-0.7,2-2.9,2.8-4.9,2.5
	c-0.3-0.1-0.5,0.5-0.1,0.5c1.8,0.3,3.7-0.3,4.9-1.8c1.1-1.5,1.1-3.5,0.1-5.1c-1.2-1.8-3.3-1.8-5.2-1.4C12.5,2.8,10.9,4,11.1,6
	c0.3,2.2,2.5,3.3,4.4,3.2C15.9,9.2,15.9,8.7,15.6,8.8L15.6,8.8L15.6,8.8z"/>
<path class="st0" d="M12.3,10.5C9.9,11.8,8.2,14.2,8,17c0,0.4,0.5,0.4,0.5,0c0.2-2.6,1.8-4.8,4-6.1C12.9,10.8,12.6,10.4,12.3,10.5
	L12.3,10.5L12.3,10.5L12.3,10.5z"/>
<path class="st0" d="M16.6,10.9c3.3-0.1,5.1,2.8,5.9,5.8c0.1,0.3,0.6,0.2,0.5-0.1c-0.9-3.2-2.9-6.3-6.4-6.1
	C16.2,10.4,16.2,10.9,16.6,10.9L16.6,10.9L16.6,10.9z"/>
</svg>
