<?xml version="1.0" encoding="utf-8"?>
<!-- Generator: Adobe Illustrator 19.2.0, SVG Export Plug-In . SVG Version: 6.00 Build 0)  -->
<svg version="1.1" id="レイヤー_1" xmlns="http://www.w3.org/2000/svg" xmlns:xlink="http://www.w3.org/1999/xlink" x="0px"
	 y="0px" viewBox="0 0 40 29.1" style="enable-background:new 0 0 40 29.1;" xml:space="preserve">
<style type="text/css">
	.st0{fill:#404040;}
</style>
<title>iconcamera</title>
<path class="st0" d="M3.5,5.9v7.9c0,1-0.2,2.1,0.3,2.9c0.5,0.7,1.2,0.8,2.1,1c2.5,0.4,5.2,0.4,7.6,0.4c2.8,0.1,5.4-0.1,8.2-0.2
	c1.6-0.1,3.9,0,4.5-1.9c0.2-1.1,0.2-2.3,0.2-3.4c0-1.3,0-2.6-0.1-3.9C26.2,7,26.2,4.8,24.2,4s-4.4-0.5-6.3-0.6L8.5,3.2
	c-0.8,0-1.5,0-2.4,0c-0.3,0-0.7,0.1-1,0.3C4.8,3.7,4.7,4.2,4.6,4.6C4.4,5.3,4.1,5.9,3.9,6.5C3.8,6.9,4.4,7,4.5,6.7L5,5.4
	c0.1-0.4,0.2-1,0.5-1.3c0.3-0.4,1.4-0.2,1.9-0.2L9.5,4l6.4,0.2c2.1,0.1,4.1,0,6.2,0.2C23,4.5,24,4.6,24.6,5.2c0.8,0.8,1,2,1.1,3.1
	c0.2,2,0.2,4,0.2,6.1c-0.1,1.1,0,2.5-1.3,2.9c-1,0.4-2.2,0.3-3.2,0.4c-4.3,0.3-8.5,0.3-12.9,0c-1.1-0.1-2.5,0-3.5-0.5
	c-1.3-0.7-0.9-2.6-0.9-3.9V6.1c0-0.2-0.1-0.3-0.2-0.3C3.6,5.8,3.5,5.8,3.5,5.9L3.5,5.9L3.5,5.9z"/>
<path class="st0" d="M12.5,14.5c-2.1-0.4-3.7-2.5-3.1-4.6c0.7-2.5,3.5-3.1,5.9-2.6c0.8,0.2,1.1,0.5,1.4,1.3C16.9,9,17,9.5,17.2,10
	c0.2,1,0.5,2.1,0.1,3.1c-0.9,2.3-3.9,1.8-5.7,1.4C11.3,14.4,11,15,11.4,15c2.2,0.5,5.5,0.9,6.5-1.7c0.5-1.3,0.2-2.7-0.2-4
	C17.4,8.2,17,7,15.6,6.8C13,6.3,9.9,6.9,9,9.7c-0.8,2.5,1,5,3.5,5.4C12.7,15.1,12.8,14.6,12.5,14.5L12.5,14.5L12.5,14.5z"/>
<path class="st0" d="M7,6.8C6.8,6.9,6.4,6.7,6.4,6.4V6.3c0-0.3,0.2-0.4,0.5-0.4c0.2,0,0.5,0.2,0.5,0.4v0.1C7.4,6.8,7,7,6.7,6.9l0,0
	l0,0C6.4,6.8,6.1,7.4,6.5,7.4C7.2,7.6,7.8,7.2,8,6.6V6.5c0.1-0.6-0.3-1.1-1-1.1c-0.7-0.1-1.2,0.4-1.1,1C6.1,7,6.6,7.5,7.3,7.3
	C7.5,7.3,7.4,6.7,7,6.8L7,6.8L7,6.8z"/>
<path class="st0" d="M12.7,12.5c-1-0.1-1.9-1.1-1.6-2.1c0.3-1.1,1.8-1.5,2.8-0.8c1.9,1.4,0.1,4.2-2.1,3.3c-0.3-0.1-0.7,0.4-0.2,0.5
	c1.3,0.5,2.8,0.1,3.5-1.1c0.7-1.2,0.1-2.9-1.2-3.5c-1.3-0.5-3,0.2-3.3,1.5c-0.3,1.4,0.8,2.7,2.2,2.8C13.1,13.1,13.1,12.6,12.7,12.5
	L12.7,12.5L12.7,12.5z"/>
</svg>
