<?xml version="1.0" encoding="utf-8"?>
<!-- Generator: Adobe Illustrator 19.2.0, SVG Export Plug-In . SVG Version: 6.00 Build 0)  -->
<svg version="1.1" id="レイヤー_1" xmlns="http://www.w3.org/2000/svg" xmlns:xlink="http://www.w3.org/1999/xlink" x="0px"
	 y="0px" viewBox="0 0 38 60" style="enable-background:new 0 0 38 60;" xml:space="preserve">
<style type="text/css">
	.st0{fill:#404040;}
</style>
<title>iconabout</title>
<path class="st0" d="M22.4,3.4c-1.3,2-2.6,3.9-4.2,5.7c-0.4,0.5-0.8,0.9-1.2,1.4c-0.2,0.2-0.7,0.5-0.7,0.8c-0.1,0.5,0.6,0.7,1,0.7
	c0.8-0.1,1.5-1.3,2-1.9l2.5-2.9c0.4-0.5,0.8-0.9,1.2-1.4c0.2-0.3,0.5-0.5,0.7-0.9c0.1-0.4-0.1-0.8-0.5-1C23,4.1,23,4,22.8,4
	s-0.2,0.1-0.2,0.3s0.1,0.3,0.2,0.3l0,0c0.8,0-0.4,1.2-0.4,1.3l-0.8,1l-1.5,1.8l-1.8,1.9c-0.2,0.2-0.4,0.5-0.6,0.7
	c-0.8,0.3-1,0.2-0.5-0.1l0.4-0.4c2-2.2,3.7-4.5,5.3-7c0.1-0.1,0-0.3-0.1-0.3C22.6,3.3,22.4,3.3,22.4,3.4L22.4,3.4L22.4,3.4z"/>
<path class="st0" d="M17.4,10.9c-1.1-0.5-2.3-0.3-3.1,0.6c-0.4,0.5-0.5,1.1-0.7,1.6c-0.4,1-1.4,1.7-2.5,1.6c-0.1,0-0.2,0.1-0.2,0.3
	c0,0.1,0.1,0.1,0.1,0.2c1.4,0.7,3.1,1.1,4.4,0c1.2-1,1.7-2.5,2.2-3.8c0.1-0.3-0.4-0.4-0.5-0.1c-0.4,1.1-0.8,2.3-1.6,3.2
	c-1.2,1.3-2.8,1.1-4.2,0.3l-0.1,0.5c1.1,0.1,2.3-0.5,2.8-1.4c0.2-0.6,0.2-1.3,0.6-1.8c0.5-0.8,1.7-1.1,2.6-0.7
	C17.5,11.5,17.7,11.1,17.4,10.9L17.4,10.9L17.4,10.9z"/>
<path class="st0" d="M9,4.5c-0.1,3.4-0.1,6.9,0.1,10.3c0.1,0.8,0.1,1.7,0.2,2.5c0.1,0.5,0.2,1,0.5,1.4c0.7,0.8,2,0.8,3.1,0.8
	c1.6,0,3.2-0.1,4.8-0.4c0.8-0.1,1.7-0.3,2.5-0.5c0.5-0.1,1.1-0.3,1.4-0.7s0.2-1.1,0.2-1.6c0-0.9,0.1-1.7,0-2.6
	c0-1.7-0.1-3.5-0.2-5.2c0-0.3-0.5-0.3-0.5,0c0.2,2.8,0.4,5.7,0.1,8.4c-0.1,0.7-0.2,0.9-1,1.1c-0.3,0.1-0.6,0.2-0.9,0.3
	c-0.6,0.1-1.3,0.3-1.9,0.4c-1.5,0.3-3,0.4-4.5,0.4S9.8,19,9.6,17.3c-0.1-1.4-0.2-2.8-0.2-4.2c-0.1-2.9-0.1-5.7,0-8.6
	C9.5,4.2,9,4.2,9,4.5L9,4.5L9,4.5z"/>
<path class="st0" d="M9,4.3l6.4-1c1-0.1,2-0.4,3-0.4c1.1,0,2.8,0.7,2.2,2c-0.1,0.3,0.3,0.5,0.4,0.3c0.4-0.7,0.2-1.4-0.4-2
	c-0.7-0.7-1.8-0.9-2.8-0.7c-2.9,0.2-5.9,0.8-8.9,1.3C8.5,3.9,8.7,4.4,9,4.3L9,4.3L9,4.3z"/>
<path class="st0" d="M11.6,7c1.9,0.2,3.8-0.1,5.7-0.7c0.3-0.1,0.2-0.6-0.1-0.5c-1.8,0.6-3.7,0.8-5.5,0.7C11.2,6.4,11.2,6.9,11.6,7
	L11.6,7L11.6,7L11.6,7z"/>
<path class="st0" d="M11.6,10.7c2,0.1,4.1-0.4,5.9-1.3c0.3-0.1,0.1-0.5-0.2-0.4c-1.7,0.9-3.7,1.3-5.6,1.2
	C11.2,10.2,11.2,10.7,11.6,10.7L11.6,10.7z"/>
</svg>
