<?xml version="1.0" encoding="utf-8"?>
<!-- Generator: Adobe Illustrator 19.2.0, SVG Export Plug-In . SVG Version: 6.00 Build 0)  -->
<svg version="1.1" id="レイヤー_1" xmlns="http://www.w3.org/2000/svg" xmlns:xlink="http://www.w3.org/1999/xlink" x="0px"
	 y="0px" viewBox="0 0 47.8 39" style="enable-background:new 0 0 47.8 39;" xml:space="preserve">
<style type="text/css">
	.st0{fill:#404040;}
</style>
<title>iconabout</title>
<path class="st0" d="M15.9,2.4L4.2,10.2c-0.1,0.1-0.1,0.2-0.1,0.3c0.1,0.1,0.1,0.1,0.1,0.1c3.7,1,7.5,1.8,11.4,2.1
	c3.6,0.2,7.4,0.3,10.9-0.1c1-0.2,2.3-0.7,2.5-1.8s-0.8-1.8-1.6-2.2c-3.5-1.9-7-3.9-10.7-5.8c-0.1-0.1-0.3,0-0.4,0.1s0,0.2,0.1,0.3
	L25,8c1,0.7,4.6,1.9,3.3,3.4c-1,1-3.3,1-4.7,1c-6.4,0.2-12.9-0.3-19-2.1L4.7,11l11.8-7.9C16.7,2.9,16.4,2.2,15.9,2.4L15.9,2.4
	L15.9,2.4z"/>
<path class="st0" d="M10.1,12.3v4.5c0,1.1-0.1,2.7,0.1,3.8c0.1,0.9,0.8,1.1,1.6,1.2c1.5,0.1,3.1,0,4.7,0h4.7c0.8,0,2,0.2,2.5-0.3
	c0.3-0.3,0.2-1,0.2-1.5v-6.9c0-0.2-0.1-0.2-0.3-0.2c-0.1,0-0.3,0.1-0.3,0.2l0,0v6.8c0,0.6,0,0.7-0.2,1c-0.3,0.6-0.4,0.3-1,0.3
	s-1.1,0-1.6,0h-7c-0.8,0-1.3,0.1-1.9-0.2c-0.7-0.3-0.5-0.6-0.7-1v-7.5c0-0.2-0.1-0.2-0.3-0.2C10.3,11.8,10.1,12.2,10.1,12.3
	L10.1,12.3L10.1,12.3z"/>
<path class="st0" d="M22.2,15.8c-1.5-0.1-3.9-2.5-5.2-0.7c-0.5,0.8-0.4,1.9-0.4,2.7c0,1.5,0.1,2.9,0.2,4.3c0.1,0.3,0.7,0.3,0.7,0
	c-0.2-1.9-0.5-4.1-0.1-5.9c0.5-2.5,3.5,0.1,4.9,0.2C22.7,16.5,22.7,15.9,22.2,15.8L22.2,15.8L22.2,15.8z"/>
</svg>
