<?xml version="1.0" encoding="utf-8"?>
<!-- Generator: Adobe Illustrator 19.2.0, SVG Export Plug-In . SVG Version: 6.00 Build 0)  -->
<svg version="1.1" id="レイヤー_1" xmlns="http://www.w3.org/2000/svg" xmlns:xlink="http://www.w3.org/1999/xlink" x="0px"
	 y="0px" viewBox="0 0 45.9 43.3" style="enable-background:new 0 0 45.9 43.3;" xml:space="preserve">
<style type="text/css">
	.st0{fill:#FFFFFF;stroke:#FFFFFF;stroke-miterlimit:10;}
</style>
<title>icon</title>
<path class="st0" d="M24.6,2.8c-0.2,4.8-1.3,9.5-3.2,13.9c-0.9,2-2.4,5.5-4.9,4.2c-1.5-0.8-2.5-2.2-4-2.9c-5.3-2.2-9.1,4.8-8.5,9.6
	c1,7.9,8.1,11.3,14.7,12.4c3.9,0.6,7.8,1.3,11.8,1.7c2.8,0.3,4.3-0.9,5.3-3.6c3.5-9.8,5.9-20.4,8.2-30.6c0.1-0.5-0.2-1.1-0.7-1.3
	C38.2,4.5,33,3.3,27.7,2.7c-1.2-0.1-1.2,1.9,0,2.1c5.1,0.6,10.2,1.8,15.1,3.4l-0.7-1.3C40,17,37.4,27,34.1,36.8
	c-1.2,3.4-3.7,2.8-6.5,2.4l-6.6-1c-4.6-0.7-9.6-1.5-12.7-5.5c-2.7-3.4-4-11.9,1.8-13c3.2-0.7,5,4.1,8.3,3.5c2.9-0.5,4.4-4.7,5.4-7.1
	c1.7-4.3,2.6-8.8,2.8-13.4c0-0.6-0.5-1-1-0.9C25,1.8,24.6,2.3,24.6,2.8L24.6,2.8L24.6,2.8z"/>
</svg>
